<?xml version="1.0" encoding="utf-8"?>
<!-- Generator: Adobe Illustrator 24.3.0, SVG Export Plug-In . SVG Version: 6.00 Build 0)  -->
<svg
  version="1.1"
  id="Layer_1"
  xmlns="http://www.w3.org/2000/svg"
  xmlns:xlink="http://www.w3.org/1999/xlink"
  x="0px"
  y="0px"
  viewBox="0 0 100 100"
  style="enable-background: new 0 0 100 100"
  xml:space="preserve"
>
  <style type="text/css">
    .st0 {
      fill: #b0b0b0;
      stroke: #000000;
      stroke-width: 0.2;
      stroke-miterlimit: 10;
    }
    .st1 {
      display: none;
    }
    .st2 {
      display: inline;
    }
    .st3 {
      fill: #adb0b1;
      stroke: #000000;
      stroke-width: 0.2;
      stroke-miterlimit: 10;
    }
  </style>
  <g id="Kredse">
    <g id="Østerbro">
      <polygon
        class="st0"
        points="38.7,-13.7 38.7,-13.7 38.6,-13.6 38.2,-13.8 37.8,-13.7 37.8,-13.4 37.8,-13.4 37.8,-13.2 
			38.1,-12.8 37.8,-12.8 37.8,-12.5 38.2,-12.6 38.2,-12.8 38.2,-12.8 38.3,-13.1 38.6,-13.2 38.7,-12.7 39,-12.9 38.8,-13.2 
			38.7,-13.3 38.7,-13.4 		"
      />
    </g>
    <g id="Sundbyvester">
      <polygon
        class="st0"
        points="37.2,-16.2 37.6,-15.8 37.8,-15.4 38.2,-14.8 38.3,-14.5 38.6,-14.5 38.7,-14.5 38.8,-14.8 39,-15.4 
			38.7,-15.6 38.7,-16 38.2,-16.2 		"
      />
    </g>
    <g id="Indre_By">
      <polygon
        class="st0"
        points="38.2,-14.6 38.1,-14.4 37.8,-14.4 37.8,-14.1 38.2,-13.8 38.6,-13.6 38.7,-13.7 38.7,-13.7 
			38.7,-14.1 38.3,-14.4 		"
      />
      <polygon
        class="st0"
        points="38.3,-14.5 38.7,-14.2 38.8,-14 38.8,-13.7 39.1,-13.6 39.1,-13.8 39.2,-13.8 39.2,-13.9 39.1,-14 
			38.8,-14.1 38.8,-14.4 38.7,-14.5 38.6,-14.5 		"
      />
    </g>
    <g id="Sundbyøster">
      <polygon
        class="st0"
        points="39.6,-15.2 39,-15.4 38.8,-14.8 38.7,-14.5 38.8,-14.4 38.8,-14.1 39.1,-14 39.2,-13.9 39.3,-14.2 
			39.2,-14.4 		"
      />
    </g>
    <g id="Nørrebro">
      <polygon
        class="st0"
        points="37.8,-13.2 37.8,-13.4 37.8,-13.4 37.8,-13.7 38.2,-13.8 37.8,-14.1 37.7,-14 37.5,-13.8 37.5,-13.7 
			37.6,-13.4 37.7,-13.2 		"
      />
    </g>
    <g id="Utterslev">
      <polygon
        class="st0"
        points="37.8,-12.8 38.1,-12.8 37.8,-13.2 37.8,-13.2 37.7,-13.2 37.6,-13.4 37.5,-13.7 37.3,-13.7 
			37.1,-13.3 37.1,-13.2 37,-12.9 37.2,-12.7 		"
      />
    </g>
    <g id="Brønshøj">
      <polygon
        class="st0"
        points="36.5,-12.8 37,-12.9 37.1,-13.2 37.1,-13.3 37.3,-13.7 37.1,-13.9 36.8,-14 36.8,-14.2 36.5,-14.5 
			36.2,-13.7 36.1,-13.2 		"
      />
    </g>
    <g id="Valby">
      <polygon
        class="st0"
        points="36.8,-14.2 36.8,-14.6 37.1,-14.6 37.3,-14.6 37.5,-14.6 37.5,-15.1 37.3,-15.2 37.3,-15.6 
			37.1,-15.7 36.8,-15.3 36.5,-14.7 36.5,-14.5 		"
      />
    </g>
    <g id="Vesterbro">
      <polygon
        class="st0"
        points="37.8,-14.4 38.1,-14.4 38.2,-14.6 38.1,-14.7 37.8,-15.1 37.8,-15.3 37.6,-15.7 37.6,-15.6 
			37.3,-15.6 37.3,-15.2 37.5,-15.1 37.5,-14.6 		"
      />
    </g>
    <g id="Falkoner">
      <polygon
        class="st0"
        points="37.5,-14.6 37.6,-14 37.3,-14 37.2,-14 37.1,-13.9 37.1,-13.9 37.3,-13.7 37.5,-13.7 37.5,-13.8 
			37.7,-14 37.8,-14.1 37.8,-14.4 		"
      />
    </g>
    <g id="Slots">
      <polygon
        class="st0"
        points="36.8,-14.2 36.8,-14 37.1,-13.9 37.2,-14 37.3,-14 37.6,-14 37.5,-14.6 37.3,-14.6 37.1,-14.6 
			36.8,-14.6 		"
      />
    </g>
    <g id="Tårnby">
      <polygon
        class="st0"
        points="37.2,-16.2 38.2,-16.2 38.7,-16 38.7,-15.6 39,-15.4 39.6,-15.2 39.7,-15.6 40.2,-15.6 40.2,-16.2 
			40.1,-16.5 40.2,-17 39.3,-17.3 38.8,-18.1 38.2,-18 38.1,-17.5 37.6,-17.5 37.1,-16.7 		"
      />
      <polygon class="st0" points="41.7,-14.2 41.2,-14.5 41.1,-15.6 41.7,-16.3 42.2,-16.1 41.8,-15.6 41.8,-14.5 		" />
    </g>
    <g id="Gentofte">
      <polygon
        class="st0"
        points="36.8,-11.8 37.3,-11.3 37.8,-11.3 38.2,-11.1 38.6,-11.5 38.2,-12.4 38.2,-12.6 37.8,-12.5 
			37.8,-12.8 37.2,-12.7 37.1,-12.2 36.8,-12.1 		"
      />
    </g>
    <g id="Lyngby">
      <polygon
        class="st0"
        points="35.7,-11.3 35.2,-11.3 35.2,-10.6 36.7,-10.5 38.1,-10.1 38.3,-10.7 38.2,-11.1 37.8,-11.3 
			37.3,-11.3 36.8,-11.8 36.3,-11.8 36.5,-11.4 36.2,-11.3 36.1,-11.4 		"
      />
    </g>
    <g id="Gladsaxe">
      <polygon
        class="st0"
        points="35.2,-12 35.2,-11.5 35.7,-11.3 36.1,-11.4 36.2,-11.3 36.5,-11.4 36.3,-11.8 36.8,-11.8 36.8,-12.1 
			37.1,-12.2 37.2,-12.7 37,-12.9 36.5,-12.8 36.1,-13.2 35.8,-12.4 35.8,-12 35.5,-11.9 		"
      />
    </g>
    <g id="Rødovre">
      <polygon
        class="st0"
        points="35.6,-13.4 35.5,-13.1 35.2,-12.7 35.2,-12.5 35,-12.5 34.8,-11.8 35.2,-12 35.5,-11.9 35.8,-12 
			35.8,-12.4 36.1,-13.2 36.2,-13.7 36.5,-14.5 36.5,-14.7 36.1,-14.7 35.8,-14.6 35.6,-14.6 		"
      />
    </g>
    <g id="Hvidovre">
      <polygon
        class="st0"
        points="36.1,-16.7 35.8,-16.1 36,-16.1 35.6,-15.6 36.2,-15.3 36.1,-14.7 36.5,-14.7 36.8,-15.3 37.1,-15.7 
			36.8,-16.1 37,-16.2 36.8,-16.7 		"
      />
    </g>
    <g id="Brøndby">
      <polygon
        class="st0"
        points="34.7,-17.1 33,-16.2 31.6,-16.9 32.1,-15.8 32.7,-15.9 34.1,-15.8 34.7,-15 35.5,-15 35.5,-14.7 
			35.6,-14.6 35.8,-14.6 36.1,-14.7 36.2,-15.3 35.6,-15.6 36,-16.1 35.8,-16.1 35.8,-16.3 35.2,-16.3 34.8,-16.6 35.2,-16.7 		"
      />
    </g>
    <g id="Taastrup">
      <polygon
        class="st0"
        points="31.6,-16.9 30.9,-16.7 30.8,-14.8 31.6,-14.2 32.2,-13.6 33.5,-14 34.1,-13.6 34.8,-13.8 35,-14.5 
			34.8,-14.4 34.5,-14.7 34.7,-15 34.1,-15.8 32.7,-15.9 32.1,-15.8 		"
      />
    </g>
    <g id="Ballerup">
      <polygon
        class="st0"
        points="34.7,-15 34.5,-14.7 34.8,-14.4 35,-14.5 34.8,-13.8 34.1,-13.6 33.7,-13.2 33.7,-12.5 32.7,-12.4 
			33.1,-11.8 34.3,-12 34.8,-11.8 35,-12.5 35.2,-12.5 35.2,-12.7 35.5,-13.1 35.6,-13.4 35.6,-14.6 35.5,-14.7 35.5,-15 		"
      />
    </g>
    <g id="Helsingør">
      <polygon
        class="st0"
        points="34.8,-1.2 34.3,-3.8 35.2,-4.2 35.8,-4 36.1,-4.7 37.2,-4.8 37.7,-3.9 38.6,-2.8 37,-1.6 35.6,-1.2 
					"
      />
    </g>
    <g id="Fredensborg">
      <polygon
        class="st0"
        points="34.3,-3.8 35.2,-4.2 35.8,-4 36.1,-4.7 37.2,-4.8 36.8,-6.5 36.8,-6.8 37.7,-8.3 36.5,-8.3 36.3,-8 
			36.1,-8 35.7,-8.3 34.8,-8.1 34.8,-7.8 34.2,-7.4 34.7,-7.1 33.7,-5.9 34.2,-5.4 34.1,-4.4 		"
      />
    </g>
    <g id="Hillerød">
      <polygon
        class="st0"
        points="32.8,-0.2 34.2,-1.1 34.8,-1.2 34.3,-3.8 34.1,-4.4 34.2,-5.4 33.7,-5.9 34.7,-7.1 34.2,-7.4 
			32.8,-8.1 31.6,-9.5 30.9,-8.2 29.8,-8.6 29.2,-7.8 29.7,-7.4 29.5,-6.9 29.2,-6.8 29.2,-6.5 30.7,-5.8 30.8,-5.3 29,-4 
			28.7,-4.6 28.4,-4.4 28.4,-3.8 27.6,-3.6 30.8,-0.8 		"
      />
    </g>
    <g id="Frederikssund">
      <polygon
        class="st0"
        points="31.6,-9.5 30.9,-8.2 29.8,-8.6 29.2,-7.8 29.7,-7.4 29.5,-6.9 29.2,-6.8 29.2,-6.5 28.7,-6.1 
			29.4,-4.8 28.8,-4.9 28.5,-5.4 28.3,-5.2 28.4,-4.6 28.7,-4.6 28.4,-4.4 28.4,-3.8 27.6,-3.6 25.7,-4.9 25,-5.4 24.9,-5.9 
			25.2,-6.5 25.7,-6.5 27.1,-5.6 27.8,-5.9 28.1,-6.4 28.5,-7.2 28.5,-7.8 28.9,-8.3 28.8,-8.9 28.5,-9.4 29.2,-11.4 29.8,-11.5 
			30.2,-10.5 30,-10.1 30.8,-9.9 31.1,-10.1 		"
      />
      <polygon
        class="st0"
        points="25.4,-13.1 26.2,-13.1 26.7,-12.7 27.6,-13.1 28.1,-12.9 28.2,-13.3 29,-12.9 28.3,-9.3 27.6,-8.9 
			27.7,-8.2 28.2,-7.5 27.6,-7.2 27.4,-7.3 27,-6.8 25.9,-6.7 25.8,-7.2 26.4,-8 26.7,-8.7 27,-9.3 26.7,-10.4 25.6,-10.6 
			25.4,-11.3 25.2,-12.5 		"
      />
    </g>
    <g id="Egedal">
      <polygon
        class="st0"
        points="32.2,-13.6 31.6,-12.9 31.9,-12.4 30.8,-12.4 29.8,-11.5 30.2,-10.5 30,-10.1 30.8,-9.9 31.1,-10.1 
			31.6,-9.5 31.9,-10.1 32.8,-10 33.6,-10.2 33.3,-9.8 34.1,-9.4 34.2,-8.9 34.8,-9.3 35.2,-9.8 35.2,-10.7 35.2,-11.3 35.7,-11.3 
			35.2,-11.5 35.2,-12 34.8,-11.8 34.3,-12 33.1,-11.8 32.7,-12.4 33.7,-12.5 33.7,-13.2 34.1,-13.6 33.5,-14 		"
      />
    </g>
    <g id="Rudersdal">
      <polygon
        class="st0"
        points="35.2,-10.6 35.2,-9.8 34.8,-9.3 34.2,-8.9 34.1,-9.4 33.3,-9.8 33.6,-10.2 32.8,-10 31.9,-10.1 
			31.6,-9.5 32.8,-8.1 34.2,-7.4 34.8,-7.8 34.8,-8.1 35.7,-8.3 36.1,-8 36.3,-8 36.5,-8.3 37.7,-8.3 37.8,-8.9 38.1,-10.1 
			36.7,-10.5 		"
      />
    </g>
    <g id="Rønne">
      <polygon class="st0" points="27.8,37.1 27.8,40.9 28.3,42.3 31.4,39.6 29.1,37.8 28.8,36.4 		" />
    </g>
    <g id="Aakirkeby">
      <polygon
        class="st0"
        points="28.7,43.5 30,42.1 32.5,41.1 33.1,40.3 35.7,39.2 36.2,37.3 35.5,35.9 35.7,35.1 35.2,34.2 
			30.4,35.3 28.8,36.4 29.1,37.8 31.4,39.6 28.3,42.3 		"
      />
    </g>
    <g id="Lolland">
      <polygon
        class="st0"
        points="12.9,-42.3 11.2,-40.4 12.2,-38.6 14.2,-37.9 15.8,-38 19.5,-41.6 20.9,-41.8 20.8,-44 21.6,-45 
			21.4,-47.3 19.6,-48.9 15.6,-45.9 11,-44.3 10.3,-43 11.4,-42.6 12.4,-43.1 		"
      />
    </g>
    <g id="Guldborgsund">
      <polygon
        class="st0"
        points="20.9,-41.8 20.8,-44 21.6,-45 21.4,-47.3 25.8,-47.5 26.8,-45.8 25.8,-45.5 25.9,-44.8 26.6,-44.9 
			26.7,-44 25.1,-42.3 25.4,-41.6 24.3,-40.9 24.1,-40.3 22.4,-39.3 22.5,-40.9 22.1,-41.2 21.5,-41 21.1,-41.3 21.7,-41.9 		"
      />
      <polygon
        class="st0"
        points="23.6,-38.4 24.3,-38.5 24.5,-39 24.7,-40.9 25.5,-41 25.7,-41.9 25.4,-42.3 26.7,-43.5 27.1,-44.3 
			26.9,-44.9 27.6,-45.1 26.9,-47 27.8,-48.6 28,-49.6 29,-50 28.7,-46.2 30.7,-42.7 32.2,-41.3 31.1,-39.5 28.9,-39.3 28.7,-38.3 
			27.6,-38.1 27.5,-38.9 25.8,-37.3 25.5,-38.3 24.8,-37.5 24.1,-37.5 		"
      />
    </g>
    <g id="Vordingborg">
      <polygon
        class="st0"
        points="28.9,-38.4 30.4,-38.8 31.8,-39.8 33,-39.5 35.2,-37 38.8,-37.4 39.2,-36.6 38.1,-35.4 34.7,-35 
			33.5,-34 32.6,-34.3 34.1,-35.4 34,-36.5 31.6,-37.1 31.4,-37.9 31.6,-38 31.1,-38.9 30.5,-38.5 29.8,-37.9 29.1,-37.9 		"
      />
      <polygon
        class="st0"
        points="29.8,-37.3 28.1,-36.3 27.3,-36 27.4,-36.4 26.9,-36.6 25.5,-35.1 23.9,-34.6 25.8,-34.7 24.9,-33.5 
			24.5,-33.9 23.5,-32.1 24.3,-32.5 24.8,-32 25.4,-32.1 25.9,-32.6 28,-31.7 28.7,-31.9 28.9,-31.4 29.5,-31.9 29.8,-32.2 
			31.1,-31.9 31.9,-32.2 31.6,-33.5 30.9,-33.3 31.4,-34.7 31.9,-36 31,-36.1 		"
      />
    </g>
    <g id="Næstved">
      <polygon
        class="st0"
        points="25.4,-32.1 25.9,-32.6 28,-31.7 28.7,-31.9 28.9,-31.4 29.1,-30.8 29.6,-30.7 28.3,-29.1 28.2,-28.4 
			27.5,-28.4 25.8,-27.1 25.5,-26.4 26.3,-25.4 25.9,-25.2 24.1,-24.3 23.5,-23.4 21.5,-24.6 20.2,-24.7 19.8,-25 18.3,-27.2 
			18.9,-27.5 19.8,-30.3 22.2,-30.7 22.9,-29.8 24,-30 23.4,-31.3 25.1,-31.6 		"
      />
    </g>
    <g id="Fakse">
      <polygon
        class="st0"
        points="29.6,-30.7 28.3,-29.1 28.2,-28.4 27.5,-28.4 25.8,-27.1 25.5,-26.4 26.3,-25.4 25.9,-25.2 
			26.2,-24.6 27.1,-24.5 27.8,-23.4 29.1,-23.7 30.3,-24.3 31.6,-24 32.2,-22.6 34.8,-23.3 36.5,-25.3 36.7,-26.6 35.8,-27.7 
			35.2,-27.8 35,-28.4 33.8,-28.4 32.6,-28.7 30.7,-30.4 30.8,-31.6 30.2,-31.8 30.4,-30.5 		"
      />
    </g>
    <g id="Køge">
      <polygon
        class="st0"
        points="27.8,-23.4 29.1,-23.7 30.3,-24.3 31.6,-24 32.2,-22.6 31.6,-21.6 31.9,-19.9 29.8,-19.5 28.5,-19.7 
			27.6,-19.2 27.8,-17.9 29.1,-17.6 29.4,-17.3 28.9,-16.5 27.8,-16.6 28.2,-15 28.1,-14.1 27.7,-14 28,-14.7 27.1,-14.8 
			26.7,-15.7 27.6,-13.1 26.7,-12.7 26.2,-13.1 25.4,-13.1 25.1,-14.6 24,-15.4 25.1,-17.8 25.6,-17.9 25.4,-18.5 26.4,-19.2 
			27.3,-21.6 27.3,-22.5 		"
      />
    </g>
    <g id="Greve">
      <polygon
        class="st0"
        points="31.9,-19.9 29.8,-19.5 30.1,-18.6 30.8,-18.3 31.4,-18.5 31.4,-17.8 30.5,-17.4 30.9,-16.7 
			31.6,-16.9 33,-16.2 34.7,-17.1 33,-18.1 32.2,-19.1 		"
      />
    </g>
    <g id="Roskilde">
      <polygon
        class="st0"
        points="29.8,-19.5 28.5,-19.7 27.6,-19.2 27.8,-17.9 29.1,-17.6 29.4,-17.3 28.9,-16.5 27.8,-16.6 28.2,-15 
			29,-14.8 29.1,-15.4 29.5,-15.4 29.6,-14.8 29.2,-14.6 29.8,-13.7 29.8,-12.9 29.2,-11.4 29.8,-11.5 30.8,-12.4 31.9,-12.4 
			31.6,-12.9 32.2,-13.6 31.6,-14.2 30.8,-14.8 30.9,-16.7 30.5,-17.4 31.4,-17.8 31.4,-18.5 30.8,-18.3 30.1,-18.6 		"
      />
    </g>
    <g id="Holbæk">
      <polygon
        class="st0"
        points="18.1,-18.3 19.8,-17.8 20.8,-18.4 22.5,-18.6 22.2,-20.1 23.5,-19.9 23.8,-19.1 25.4,-18.5 
			25.6,-17.9 25.1,-17.8 24,-15.4 23.8,-15.4 24.5,-14.4 23.7,-13.2 21.9,-13.8 21.6,-13.3 23.7,-12.8 23.1,-11.1 21.9,-11.9 
			21.1,-11.9 19.6,-12.1 18.5,-13.2 17.5,-13.4 16.8,-15 17.1,-15.8 16.9,-16.5 17.5,-18 		"
      />
    </g>
    <g id="Kalundborg">
      <polygon
        class="st0"
        points="17.8,-20.9 17.7,-20.3 17.1,-20 16.2,-19.2 18.4,-19.2 18.1,-18.3 17.5,-18 16.9,-16.5 17.1,-15.8 
			16.8,-15 17.5,-13.4 18.5,-13.2 19.6,-12.1 21.1,-11.9 20.9,-11.7 21.5,-11.3 21.8,-10.5 22.7,-10.8 23,-10 21.7,-8.6 21.8,-7.4 
			22.5,-7.5 22.9,-7.9 23.2,-7.7 23.2,-6.5 23.8,-6.1 23.6,-5.4 21.1,-6.8 20.3,-6 19.3,-6.5 16.9,-6.1 15.1,-5.3 14.9,-4.9 
			15.2,-5.9 16.5,-6.5 18.7,-6.8 19.3,-7.3 19.3,-8.6 18.7,-9.8 18.1,-9.8 17.1,-10.2 16.5,-10 16.8,-11.5 16.3,-12.6 14.5,-13.4 
			13.9,-13.1 13.7,-13.6 13.2,-12.8 10.9,-13.7 9.4,-13.2 7.7,-13.3 8.9,-13.9 9.6,-13.8 11.4,-15.3 11.9,-15.6 11.5,-15.8 
			9.1,-15.6 9.4,-16 12.4,-17.3 13.1,-19.1 12.8,-19.8 11.9,-19.8 11.9,-20.6 12.4,-19.9 13.1,-20.7 13.7,-22 14.7,-21.6 15.5,-22 
			16,-21.6 16.7,-22 		"
      />
    </g>
    <g id="Ringsted">
      <polygon
        class="st0"
        points="19.8,-25 20.2,-24.7 21.5,-24.6 23.5,-23.4 24.1,-24.3 25.9,-25.2 26.2,-24.6 27.1,-24.5 27.8,-23.4 
			27.3,-22.5 27.3,-21.6 26.4,-19.2 25.4,-18.5 23.8,-19.1 23.5,-19.9 22.2,-20.1 22.5,-18.6 20.8,-18.4 19.8,-17.8 18.1,-18.3 
			18.4,-19.2 16.2,-19.2 17.1,-20 17.7,-20.3 17.8,-20.9 18.5,-20.5 19.1,-21.1 18.6,-21.4 19.6,-22.6 19.5,-23.8 19,-24 		"
      />
    </g>
    <g id="Slagelse">
      <polygon
        class="st0"
        points="13.7,-22 14.7,-21.6 15.5,-22 16,-21.6 16.7,-22 17.8,-20.9 18.5,-20.5 19.1,-21.1 18.6,-21.4 
			19.6,-22.6 19.5,-23.8 19,-24 19.8,-25 18.3,-27.2 18.9,-27.5 19.8,-30.3 18.6,-30.5 17.2,-30.3 15.9,-30.5 15,-30.1 14.8,-27.6 
			12.9,-26.2 13.8,-26.4 13.6,-25.4 12.5,-26 12.2,-25.8 12.4,-25.1 13.1,-25.1 14.3,-24.1 		"
      />
    </g>
    <g id="Odense_Øst">
      <polygon
        class="st0"
        points="-0.5,-24.5 -0.8,-23.6 0.1,-23 0.3,-23.2 1.3,-22.7 1.9,-23.4 1.8,-23.7 1,-23.8 1.9,-25.3 
			2.8,-26.2 2.4,-26.7 1.1,-26 0,-24.9 -0.4,-25 		"
      />
    </g>
    <g id="Odense_Vest">
      <polygon
        class="st0"
        points="-4,-24.4 -2.2,-22 -0.9,-21.9 0,-22.3 0.1,-23 -0.8,-23.6 -0.5,-24.5 -3,-26 -4.2,-25.6 		"
      />
    </g>
    <g id="Odense_Syd">
      <polygon
        class="st0"
        points="-3,-26 -0.5,-24.5 -0.4,-25 0,-24.9 1.1,-26 2.4,-26.7 0.7,-27 0.7,-27.2 0,-27.4 -0.2,-26.5 
			-1.6,-27.2 -1.2,-27.8 -2.4,-27.9 -2.6,-27.7 -2.3,-27.2 -2.9,-27.1 		"
      />
    </g>
    <g id="Assens">
      <polygon
        class="st0"
        points="-4,-24.4 -4,-24.4 -4.2,-25.6 -3,-26 -2.9,-27.1 -2.3,-27.2 -2.6,-27.7 -3.4,-28.5 -4.4,-28.7 
			-4.4,-29.7 -3.5,-30.1 -5,-32 -5.6,-31.1 -6,-31.6 -7.1,-31.3 -7.6,-30.7 -7.7,-31.4 -6.7,-32.9 -6.9,-33.3 -8,-33 -7.9,-31.7 
			-7.9,-30.5 -8.5,-30.3 -8.7,-30.4 -9.2,-29.8 -9.9,-29.4 -9.4,-29.2 -9.7,-28.7 -9.5,-27.5 -9.9,-26.4 -9.4,-26.5 -8.5,-25.1 
			-7.9,-25.3 -7.5,-24.5 -7.9,-23.6 -7,-23.8 -6.1,-23.6 -5,-23.9 		"
      />
    </g>
    <g id="Middelfart">
      <polygon
        class="st0"
        points="-9.9,-26.4 -9.4,-26.5 -8.5,-25.1 -7.9,-25.3 -7.5,-24.5 -7.9,-23.6 -7,-23.8 -6.1,-23.6 -5,-23.9 
			-4,-24.4 -2.2,-22 -0.9,-21.9 0,-22.3 0.5,-21.6 1.3,-21.2 0.7,-20.4 1.2,-19.9 1.9,-20.3 -0.2,-18.5 -2.1,-17.3 -2.6,-17.4 
			-2.2,-18.3 -2.2,-18.6 -2.7,-18.7 -2.6,-17.9 -4.1,-18.1 -6.5,-19.5 -8.9,-21.1 -10.3,-20.9 -10.3,-19.8 -11.9,-20 -11.9,-20.9 
			-12.3,-21.2 -13.4,-20.9 -13.3,-22 -12.4,-21.9 -10.8,-23.4 -12.3,-22.7 -12.2,-23.4 -10.8,-23.8 -10.7,-24.1 -11.3,-24.1 
			-10.4,-25 -10.7,-25.2 -11.4,-25.4 -11.4,-25.8 -9.9,-26.1 		"
      />
    </g>
    <g id="Nyborg">
      <polygon
        class="st0"
        points="1.3,-22.7 1.9,-23.4 1.8,-23.7 1,-23.8 1.9,-25.3 2.8,-26.2 3.3,-26.6 3.5,-27.5 3,-27.7 3,-28.3 
			2.4,-28.8 1.9,-28.7 2.9,-29.4 4.2,-29.6 4.4,-30 4.3,-31 5.8,-31.4 6.2,-30.5 6.6,-29.9 7.1,-30.1 7.2,-29.6 6.4,-27.5 
			6.8,-27.2 7.3,-27.8 7.8,-27.5 7.2,-27.1 6.3,-24.9 5.4,-23.8 4.4,-22.7 5.2,-21.9 5.8,-21.8 5.6,-21.3 4.9,-20.4 5,-19.9 
			3.2,-17.3 3.5,-18.7 3.1,-18.6 3.6,-20.5 3.3,-20.6 3,-20.3 2.5,-20.4 2.7,-20.7 3.5,-21.1 3.5,-21.8 1,-22.1 		"
      />
    </g>
    <g id="Svendborg">
      <polygon
        class="st0"
        points="-0.5,-35.2 -0.1,-33.1 1,-32 1.9,-31.8 3.2,-31.9 3.2,-31.3 3.7,-31.4 3.7,-30.8 4.3,-31 5.8,-31.4 
			6.2,-30.5 6.6,-29.9 7.1,-30.1 6.5,-33.4 6.2,-34 6,-34.6 5.3,-35.1 3.9,-35.1 2.1,-36.1 1.2,-35.7 0.1,-35.8 -0.4,-35.6 		"
      />
      <polygon
        class="st0"
        points="3.9,-35.2 1.9,-36.8 2.3,-37.9 2.6,-38.8 3.8,-38.5 5,-37.8 5.2,-37 4.8,-37 4.6,-37.5 3.7,-37.1 
			4.5,-36.1 5.4,-35.9 5.3,-35.4 		"
      />
      <polygon
        class="st0"
        points="9.5,-31.7 9.8,-31.9 8.8,-37.2 7.7,-38.8 6.2,-45.1 5.3,-45.7 4.9,-45.1 5,-44.7 4.4,-42.9 
			3.5,-42.1 4.5,-42.3 4.9,-40.6 5.8,-40.9 5.4,-39.9 4.8,-39.8 6.6,-37.5 8,-35.7 8.5,-33.3 		"
      />
    </g>
    <g id="Faaborg">
      <polygon
        class="st0"
        points="-5,-32 -3.5,-30.1 -4.4,-29.7 -4.4,-28.7 -3.4,-28.5 -2.6,-27.7 -2.4,-27.9 -1.2,-27.8 -1.6,-27.2 
			-0.2,-26.5 0,-27.4 0.7,-27.2 0.7,-27 2.4,-26.7 2.8,-26.2 3.3,-26.6 3.5,-27.5 3,-27.7 3,-28.3 2.4,-28.8 1.9,-28.7 2.9,-29.4 
			4.2,-29.6 4.4,-30 4.3,-31 3.7,-30.8 3.7,-31.4 3.2,-31.3 3.2,-31.9 1.9,-31.8 1,-32 -0.1,-33.1 -0.5,-35.2 -1,-35.4 -1.6,-35.4 
			-3.3,-33.9 -3.7,-34.1 -3.3,-34.6 -3.7,-35.2 -4.1,-34.7 -5.2,-34.3 -6.2,-34.7 -6.1,-33.9 -4.4,-33.1 		"
      />
      <polygon
        class="st0"
        points="-3.7,-38 -3.2,-39.5 0.4,-42.9 0.6,-42.1 2.3,-41.8 1,-40.5 1.1,-41.3 -0.1,-40.8 0,-40.1 
			-0.8,-40.6 -2.3,-39 -2.8,-39.1 -3.4,-38.1 		"
      />
    </g>
    <g id="Sønderborg">
      <polygon
        class="st0"
        points="-16.1,-41.2 -16.3,-40.6 -15.9,-40.6 -16.2,-40.3 -17.1,-40.2 -17.2,-39.3 -16.6,-38.9 -16.8,-38.4 
			-16.2,-38.4 -15.5,-39.1 -14.1,-37 -12.9,-37.7 -12.2,-37.7 -12,-38.3 -11.6,-39.8 -11.4,-40.1 -11.7,-40.5 -12.7,-40.3 
			-12.8,-40.8 -12.4,-40.8 -11.7,-41.6 -12,-42.4 -12.7,-42.2 -12.7,-41.9 -13.4,-41.7 -13.5,-41.8 -14,-41.6 -13.6,-41.1 
			-14.7,-40.3 -13.4,-39.9 -14.3,-39.2 -14.9,-39.9 -14.8,-40.3 -15.2,-40.4 -15.4,-41.2 -15.7,-41 		"
      />
      <polygon
        class="st0"
        points="-12.9,-37 -13.6,-36.4 -13.2,-36 -14,-35.9 -14,-35.6 -12.1,-34.5 -10.2,-35.8 -9.4,-36.5 
			-8.5,-36.7 -7.6,-37.4 -6.6,-39.3 -6.1,-41 -8,-41.9 -9.7,-41.1 -9.4,-40.5 -8,-41.1 -8.1,-40.9 -9.4,-40.2 -10.4,-40.8 
			-11.3,-40.3 -12,-37.9 -11.7,-37.8 -11.5,-38.1 -11.3,-38.1 -10.6,-39.3 -9.6,-39 -10.3,-38.9 -10.2,-38.1 -11.4,-37.5 
			-11.1,-36.8 		"
      />
    </g>
    <g id="Aabenraa">
      <polygon
        class="st0"
        points="-25.2,-41 -25.4,-39.2 -23.9,-37.9 -24.4,-36.7 -23.2,-35.4 -23.5,-34.6 -22.9,-34.1 -22.1,-34.4 
			-21,-33.3 -21,-33 -20.3,-33 -20.3,-32 -19.9,-32 -19,-32.5 -17.3,-32.6 -17.1,-33.2 -17.3,-33.7 -16.6,-33.5 -15.5,-34.6 
			-16.5,-35.8 -17.9,-35.9 -17.7,-36.6 -16.5,-36.7 -15.2,-35.9 -14.1,-37 -15.5,-39.1 -16.2,-38.4 -16.8,-38.4 -16.6,-38.9 
			-17.2,-39.3 -17.1,-40.2 -16.2,-40.3 -15.9,-40.6 -16.3,-40.6 -16.1,-41.2 -17.7,-42.6 -18.1,-42.3 -18.6,-42.4 -19.4,-43.6 
			-21,-43.4 -21.3,-42.5 -21.2,-42.1 -23.3,-41.2 -24.2,-41.4 		"
      />
    </g>
    <g id="Tønder">
      <polygon
        class="st0"
        points="-31.7,-29.8 -26.7,-30.3 -26.7,-31.1 -26.2,-31.2 -26.1,-30.6 -24.4,-29.7 -22.6,-30.7 -23.6,-32 
			-23.3,-32.2 -22.1,-31.7 -21.3,-32 -21,-31.7 -20.7,-31.9 -20.3,-32 -20.3,-33 -21,-33 -21,-33.3 -22.1,-34.4 -22.9,-34.1 
			-23.5,-34.6 -23.2,-35.4 -24.4,-36.7 -23.9,-37.9 -25.4,-39.2 -25.2,-41 -26.9,-40.4 -29.2,-40.3 -30.6,-40.8 -32.2,-40.1 
			-31.7,-37.9 -32.2,-36 -31.3,-32.7 -31.8,-32.6 -32.7,-32.7 -33.7,-32.6 -33.4,-34.5 -34.7,-35.4 -35.4,-34.3 -34.7,-30.6 
			-33,-31.2 -33.4,-32.4 -32.7,-32.6 -31.6,-32.4 -31.2,-32.1 		"
      />
    </g>
    <g id="Esbjerg_By">
      <polygon class="st0" points="-36.8,-21.1 -35.4,-20.9 -34.7,-21 -34.5,-23 -35.8,-22.9 		" />
      <polygon
        class="st0"
        points="-36.8,-22.4 -36.2,-22.6 -36.2,-23.6 -35.8,-23.4 -35.2,-24.4 -35.7,-24.9 -35,-26.5 -35.9,-26.2 
			-37.3,-23.6 -37.5,-23.3 -37.8,-22.7 		"
      />
    </g>
    <g id="Esbjerg_Omegn">
      <polygon
        class="st0"
        points="-34.5,-23 -34.7,-21 -35.4,-20.9 -36.8,-21.1 -38.2,-19.2 -37.9,-18.8 -37.2,-18.5 -36.2,-19.2 
			-36.2,-19.7 -35.7,-19.9 -35.2,-18.8 -32.8,-18.1 -32.2,-18.8 -32.4,-19.2 -31.5,-20 -29.8,-19.9 -27.9,-21.6 -28.5,-23 
			-28,-24.3 -27.4,-24.4 -26.8,-25.1 -27.9,-25.8 -27.3,-26.6 -27.5,-27.1 -26.9,-27.9 -27.3,-28.5 -26.7,-28.7 -26.7,-30.3 
			-31.7,-29.8 -31.7,-27.7 -32.2,-27.6 -33,-28 -33.4,-28.7 -34.2,-28.5 -33.7,-27.9 -33.2,-28 -32.2,-27.5 -31.7,-27.6 
			-31.6,-26.5 -32.5,-23.7 -33.5,-23 		"
      />
    </g>
    <g id="Varde">
      <polygon
        class="st0"
        points="-40.4,-11.4 -39.7,-10.9 -37.8,-11.9 -37.2,-11.3 -35.2,-12.8 -33.7,-10.5 -31.6,-10.4 -29.9,-12 
			-30,-13.3 -29.5,-13.3 -28.6,-14.2 -29.2,-15.7 -27.6,-16.3 -27.4,-17.9 -29.7,-18.9 -29.8,-19.9 -31.5,-20 -32.4,-19.2 
			-32.2,-18.8 -32.8,-18.1 -35.2,-18.8 -35.7,-19.9 -36.2,-19.7 -36.2,-19.2 -37.2,-18.5 -37.9,-18.8 -38.8,-18.3 -39.3,-19.5 
			-38.8,-20.5 -38,-21.6 -38.4,-22.1 -40.4,-20.4 -42.2,-19.6 -40.4,-14.1 		"
      />
    </g>
    <g id="Vejen">
      <polygon
        class="st0"
        points="-27.4,-17.9 -27.6,-16.3 -29.2,-15.7 -28.6,-14.2 -29.5,-13.3 -30,-13.3 -29.9,-12 -28.8,-11.3 
			-28.3,-9.4 -26.2,-9.4 -26.3,-10.6 -25.4,-10.9 -24.4,-10.6 -24.6,-12.9 -23.6,-13.1 -23.5,-13.4 -22.7,-13.7 -22.9,-17.1 
			-22.2,-17.4 -22.2,-17.8 -21.6,-17.9 -21.4,-18.5 -20.6,-18.7 -20.6,-19.8 -20.8,-20.4 -20.1,-21.6 -21.2,-22.7 -21.2,-23 
			-21.6,-22.7 -21.4,-24.6 -20.5,-25 -20.6,-25.4 -21.2,-25.3 -21.7,-26.7 -22.1,-26.5 -22.2,-28 -23.5,-27.9 -23.6,-26.7 
			-24,-26.7 -24.4,-27.5 -25.9,-26.5 -26.7,-27.5 -27.5,-27.1 -27.3,-26.6 -27.9,-25.8 -26.8,-25.1 -27.4,-24.4 -28,-24.3 
			-28.5,-23 -27.9,-21.6 -29.8,-19.9 -29.7,-18.9 		"
      />
    </g>
    <g id="Vejle_Nord">
      <polygon
        class="st0"
        points="-24.4,-10.6 -21.6,-7.1 -19.2,-7.7 -18.7,-8.2 -17.5,-9.9 -17.6,-10.8 -16.8,-11.1 -16.6,-11.9 
			-15.9,-12.2 -16,-12.7 -15.3,-12.6 -15.1,-12.8 -15.1,-13.3 -13.5,-13.7 -13.6,-14.7 -15.5,-14.7 -16.1,-14.5 -18.6,-15.9 
			-21,-16.9 -21.4,-16.5 -22.2,-17.4 -22.9,-17.1 -22.7,-13.7 -23.5,-13.4 -23.6,-13.1 -24.6,-12.9 		"
      />
    </g>
    <g id="Vejle_Syd">
      <polygon
        class="st0"
        points="-22.2,-17.4 -21.4,-16.5 -21,-16.9 -18.6,-15.9 -16.1,-14.5 -15.5,-14.7 -15.7,-15.1 -13.7,-15.4 
			-12.4,-16.3 -12.2,-17.4 -13.5,-18.3 -13.7,-17.8 -14.4,-17.6 -14.6,-18.1 -15.7,-18.9 -16.6,-17.4 -17.5,-19.1 -18.7,-18.9 
			-19.3,-19.5 -19.9,-18.8 -20.6,-18.7 -21.4,-18.5 -21.6,-17.9 -22.2,-17.8 		"
      />
    </g>
    <g id="Fredericia">
      <polygon
        class="st0"
        points="-15.7,-18.9 -14.6,-18.1 -14.4,-17.6 -13.7,-17.8 -13.5,-18.3 -12.2,-17.4 -10.2,-17.4 -11.4,-18.5 
			-11.9,-19.6 -12.4,-19.6 -12.2,-20.7 -13.6,-20.6 -14.3,-21.1 -15.3,-20.6 -14.9,-20 		"
      />
    </g>
    <g id="Kolding_Nord">
      <polygon
        class="st0"
        points="-20.6,-18.7 -19.9,-18.8 -19.3,-19.5 -18.7,-18.9 -17.5,-19.1 -16.6,-17.4 -15.7,-18.9 -14.9,-20 
			-15.3,-20.6 -15.2,-21.4 -16.8,-21.6 -19,-21.4 -19,-21.8 -18.6,-21.9 -18.3,-22.9 -19.9,-23.2 -21.2,-22.7 -20.1,-21.6 
			-20.8,-20.4 -20.6,-19.8 		"
      />
    </g>
    <g id="Kolding_Syd">
      <polygon
        class="st0"
        points="-21.2,-22.7 -19.9,-23.2 -18.3,-22.9 -18.6,-21.9 -19,-21.8 -19,-21.4 -16.8,-21.6 -16.5,-21.9 
			-14.3,-21.6 -13.2,-22.7 -14.9,-23.9 -14.4,-24.9 -14.8,-25.9 -16.1,-27.1 -16,-28.1 -16.8,-28.3 -17.1,-27.5 -19,-27.4 
			-20.6,-25.4 -20.5,-25 -21.4,-24.6 -21.6,-22.7 -21.2,-23 		"
      />
    </g>
    <g id="Haderslev">
      <polygon
        class="st0"
        points="-26.7,-30.3 -26.7,-28.7 -27.3,-28.5 -26.9,-27.9 -27.5,-27.1 -26.7,-27.5 -25.9,-26.5 -24.4,-27.5 
			-24,-26.7 -23.6,-26.7 -23.5,-27.9 -22.2,-28 -22.1,-26.5 -21.7,-26.7 -21.2,-25.3 -20.6,-25.4 -19,-27.4 -17.1,-27.5 
			-16.8,-28.3 -16,-28.1 -16.1,-27.1 -14.8,-25.9 -14.4,-25.9 -14,-26.9 -13.6,-28.1 -14,-28.3 -13.7,-28.5 -12.7,-29 -12.7,-29.4 
			-12.8,-29.9 -13.2,-30.3 -13,-31 -14.1,-31.7 -14.8,-31.2 -16.8,-32.4 -16.2,-33.2 -17.1,-33.2 -17.3,-32.6 -19,-32.5 -19.9,-32 
			-20.7,-31.9 -21,-31.7 -21.3,-32 -22.1,-31.7 -23.3,-32.2 -23.6,-32 -22.6,-30.7 -24.4,-29.7 -26.1,-30.6 -26.2,-31.2 
			-26.7,-31.1 		"
      />
    </g>
    <g id="Aarhus_Syd">
      <polygon
        class="st0"
        points="-7.1,-5.6 -7.4,-5.3 -6.9,-4.7 -7,-4.1 -6.7,-4 -6.3,-3.3 -6.9,-2.7 -5.6,-2.1 -4.5,-1.4 -4.9,-1 
			-4.5,-0.6 -3.8,-1 -4.2,-1.2 -3.2,-4 -3.2,-4.7 -3.6,-5.2 -4.3,-5.3 -4.4,-4.8 -5.3,-4.9 -5.4,-5.4 -6.1,-5.3 		"
      />
    </g>
    <g id="Aarhus_Vest">
      <polygon
        class="st0"
        points="-6.9,-2.7 -8.3,-2.1 -8.8,-1.1 -8.4,-0.7 -8.5,-0.1 -8.2,0.2 -8.2,0.9 -7.5,1.8 -5.8,1.3 -5.4,1.2 
			-5.2,0.3 -5.6,0 -5.5,-0.6 -4.5,-0.6 -4.9,-1 -4.5,-1.4 -5.6,-2.1 		"
      />
    </g>
    <g id="Aarhus_Nord">
      <polygon
        class="st0"
        points="-5.8,1.3 -5.7,4.5 -5.2,4.1 -4.8,4.9 -4.2,5 -3.8,4.5 -3.2,4.6 -3.4,3.3 -3.4,2.9 -3.7,2.5 -3.5,1.9 
			-4.9,0.6 -3.8,0.2 -4,-0.2 -4.4,-0.1 -4.5,-0.6 -5.5,-0.6 -5.6,0 -5.2,0.3 -5.4,1.2 		"
      />
    </g>
    <g id="Aarhus_Øst">
      <polygon class="st0" points="-4.1,-0.8 -4,-0.2 -4.4,-0.1 -4.5,-0.6 		" />
      <polygon
        class="st0"
        points="-3.8,0.2 -4.9,0.6 -3.5,1.9 -3.7,2.5 -3.4,2.9 -3.4,3.3 -2.4,3.9 -1.5,3.6 -1.5,3.1 -2,2.8 -1.8,2.4 
			-2.9,1.3 -3,0.8 		"
      />
    </g>
    <g id="Djurs">
      <polygon
        class="st0"
        points="-1.5,3.6 -2.4,3.9 -3.4,3.3 -3.2,4.6 -3.8,4.5 -4.2,5 -4.8,4.9 -5.4,5 -5.3,5.4 -4,6.3 -4.5,7 
			-3.2,7.6 -3.4,9.3 -4.1,9.7 -4.3,12 -2.8,13.6 -2.2,13.3 -1,11.3 1,10.8 5.4,11.7 6.5,11.4 7.2,10.3 8.6,9.1 8,7.8 8,5.6 6,2.6 
			5.1,1.9 4.6,-0.8 3.2,0.2 3.8,0.8 3.5,2 2.5,1.6 1.7,0 1.9,-2.1 1.1,-2.4 0.5,-1.1 0.9,0.1 -1.2,-0.2 -2.1,0.9 -0.7,1.4 0.4,0.8 
			0.3,2.1 1,3.3 -1.2,3.8 		"
      />
    </g>
    <g id="Randers_Nord">
      <polygon
        class="st0"
        points="-8.8,12.9 -6,14.6 -4.8,16.1 -3.5,16.8 -2.3,16.7 -2,14.6 -2.8,13.6 -4.3,12 -4.1,9.7 -7.6,9.3 
			-8.4,8.7 -9.9,8.7 -9.7,9.4 -9,9.8 -9.7,10.5 -8.2,11.9 		"
      />
    </g>
    <g id="Randers_Syd">
      <polygon
        class="st0"
        points="-12.1,8.5 -11.9,12.1 -10.5,12 -8.8,12.9 -8.2,11.9 -9.7,10.5 -9,9.8 -9.7,9.4 -9.9,8.7 -8.4,8.7 
			-7.6,9.3 -4.1,9.7 -3.4,9.3 -3.2,7.6 -4.5,7 -5.7,6.6 -7.5,6.8 -9,6.3 -9.3,6.7 -10.3,6.3 -11.5,6.8 -11.4,7.6 -10.9,7.7 
			-10.8,8.5 		"
      />
    </g>
    <g id="Favrskov">
      <polygon
        class="st0"
        points="-10.4,0.3 -12,0.6 -12,3.5 -13.6,3.8 -13.9,4.3 -12.9,4.9 -13.3,6.3 -12.1,8.5 -10.8,8.5 -10.9,7.7 
			-11.4,7.6 -11.5,6.8 -10.3,6.3 -9.3,6.7 -9,6.3 -7.5,6.8 -5.7,6.6 -4.5,7 -4,6.3 -5.3,5.4 -5.4,5 -4.8,4.9 -5.2,4.1 -5.7,4.5 
			-5.8,1.3 -7.5,1.8 -8.2,0.9 -9.5,1.3 		"
      />
    </g>
    <g id="Skanderborg">
      <polygon
        class="st0"
        points="-2.9,-4.8 -3.2,-4.7 -3.6,-5.2 -4.3,-5.3 -4.4,-4.8 -5.3,-4.9 -5.4,-5.4 -6.1,-5.3 -7.1,-5.6 
			-7.4,-5.3 -6.9,-4.7 -7,-4.1 -6.7,-4 -6.3,-3.3 -6.9,-2.7 -8.3,-2.1 -8.8,-1.1 -8.4,-0.7 -8.5,-0.1 -8.2,0.2 -8.2,0.9 -9.5,1.3 
			-10.4,0.3 -10.4,-0.2 -12.3,-0.6 -12.4,-1.3 -13.9,-2 -15,-3.3 -13,-3.9 -13,-4.1 -13.7,-4.4 -13.3,-5.3 -11.5,-5.1 -11.1,-5.4 
			-11.5,-5.9 -10.2,-7.1 -8.4,-5.9 -7.6,-6.1 -7.1,-6.8 -7.5,-8.3 -6.9,-9.4 -6.6,-9.2 -5.8,-9.3 -5.7,-10 -5.6,-9.5 -5.2,-9.3 
			-5.4,-10 -4.3,-10.6 -4.2,-9.2 -3.3,-8.1 -3.2,-6.7 -3.4,-5.9 		"
      />
      <polygon
        class="st0"
        points="3.3,-12.6 2.1,-12.7 1.6,-11.1 1.9,-9.8 2.5,-9.5 2.9,-8.7 2.5,-7.7 1.7,-7.4 1.5,-6.1 2.1,-5.3 
			2.6,-7.4 3.7,-7.9 3.1,-8.2 3.7,-9.3 4.2,-9.1 4.3,-9.5 3.6,-10.4 3.7,-11.4 		"
      />
    </g>
    <g id="Horsens">
      <polygon
        class="st0"
        points="-13,-3.9 -13,-4.1 -13.7,-4.4 -13.3,-5.3 -11.5,-5.1 -11.1,-5.4 -11.5,-5.9 -10.2,-7.1 -8.4,-5.9 
			-7.6,-6.1 -7.1,-6.8 -7.5,-8.3 -6.9,-9.4 -7.7,-9.5 -7.9,-9.3 -8.4,-9.4 -8.4,-10 -9.9,-9.8 -10.3,-10.4 -8.5,-10.9 -8.8,-11.7 
			-11,-12 -12.7,-9.9 -13.3,-9.9 -13.3,-8.7 -14.3,-8 -14.6,-8.5 -15.7,-8.3 -16.5,-7.7 -16.8,-6.5 -17.4,-6 -14.9,-5.2 -15.1,-4.4 
			-15.2,-3.6 -15,-3.3 		"
      />
    </g>
    <g id="Hedensted">
      <polygon
        class="st0"
        points="-15.7,-8.3 -14.6,-8.5 -14.3,-8 -13.3,-8.7 -13.3,-9.9 -12.7,-9.9 -11,-12 -8.8,-11.7 -8.5,-10.9 
			-7.5,-10.8 -7.5,-11.3 -6.9,-11.1 -6.7,-11.7 -7.5,-13.2 -6.5,-13.3 -6.3,-13.6 -7.9,-14.1 -7.9,-14.5 -7.5,-14.6 -7.3,-15.1 
			-10.9,-16 -13.6,-14.7 -13.5,-13.7 -15.1,-13.3 -15.1,-12.8 -15.3,-12.6 -16,-12.7 -15.9,-12.2 -16.6,-11.9 -16.8,-11.1 
			-17.6,-10.8 -17.5,-9.9 -18.7,-8.2 -15.9,-8.6 		"
      />
    </g>
    <g id="Struer">
      <polygon
        class="st0"
        points="-41.2,6.7 -41.2,10.7 -40.3,15 -39.2,17 -39,16 -39.8,14.6 -37.9,13.2 -37.9,11.9 -36.9,12.6 
			-34,11.3 -33.2,12.5 -32.4,11 -32.8,9.9 -30.7,9.4 -31.4,6.9 -33.8,7.7 -35.5,6.5 -37.4,5.7 -38.8,5.3 -40.3,8.1 -40.9,8.2 
			-40.9,6.8 		"
      />
      <polygon
        class="st0"
        points="-36.2,15.6 -35,16.1 -34.2,15.7 -33.7,16.1 -32.8,15.9 -32.2,15 -32.9,13.3 -33.9,12.7 -34.8,14.7 		
			"
      />
    </g>
    <g id="Skive">
      <polygon
        class="st0"
        points="-25.7,9.7 -28.1,9.9 -28.3,11.8 -29.8,11.7 -31.3,14 -29.9,14.3 -27.2,19.1 -26.2,19.7 -26.2,21 
			-24.4,21.1 -24,19.3 -22.7,16.8 -24.1,14.3 -22.9,14.7 -22.5,13.9 -21,14.1 -20.4,13.5 -21.4,12.2 -23.1,10.6 -24.1,11.1 		"
      />
    </g>
    <g id="Viborg_Vest">
      <polygon
        class="st0"
        points="-21.4,12.2 -23.1,10.6 -24.1,11.1 -25.7,9.7 -25.6,7.4 -23.7,5.3 -24.1,4.4 -25,4.4 -23.6,2.6 
			-22.1,2.9 -21.7,1.1 -21.5,1.5 -21.5,2.8 -18.9,5.5 -17.9,5.9 -18.4,7.9 -18,9.3 -17.4,9.5 -18.5,11.1 -19.1,11.2 -19.7,11.3 
			-20.2,11 		"
      />
    </g>
    <g id="Viborg_Øst">
      <polygon
        class="st0"
        points="-13.9,4.3 -16.8,4 -17.5,5 -17,5.3 -17.9,5.9 -18.4,7.9 -18,9.3 -17.4,9.5 -18.5,11.1 -19.1,11.2 
			-19.1,12.2 -20.5,12 -20,15.4 -17.7,14.5 -17.3,16 -16.4,16.1 -16.4,14.5 -13.9,14.2 -14.4,12.7 -13.3,13.1 -12.4,12 -11.9,12.1 
			-12.1,8.5 -13.3,6.3 -12.9,4.9 		"
      />
    </g>
    <g id="Silkeborg_Nord">
      <polygon
        class="st0"
        points="-13.9,-2 -15.7,-0.9 -15.4,0.2 -17.7,0.8 -16.8,-1.2 -18.3,-1.9 -19.4,0.4 -20.6,0.8 -21.5,1.5 
			-21.5,2.8 -18.9,5.5 -17.9,5.9 -17,5.3 -17.5,5 -16.8,4 -13.9,4.3 -13.6,3.8 -12,3.5 -12,0.6 -10.4,0.3 -10.4,-0.2 -12.3,-0.6 
			-12.4,-1.3 		"
      />
    </g>
    <g id="Silkeborg_Syd">
      <polygon
        class="st0"
        points="-17.4,-6 -18.3,-4.8 -19.1,-5 -20.1,-3.4 -18.2,-2.8 -18.3,-1.9 -16.8,-1.2 -17.7,0.8 -15.4,0.2 
			-15.7,-0.9 -13.9,-2 -15.2,-3.6 -14.9,-5.2 		"
      />
    </g>
    <g id="Ikast">
      <polygon
        class="st0"
        points="-21.5,1.5 -20.6,0.8 -19.4,0.4 -18.3,-1.9 -18.2,-2.8 -20.1,-3.4 -19.1,-5 -18.3,-4.8 -17.4,-6 
			-16.8,-6.5 -16.5,-7.7 -15.7,-8.3 -15.9,-8.6 -18.7,-8.2 -19.2,-7.7 -21.6,-7.1 -24.4,-10.6 -25.4,-10.9 -26.3,-10.6 -26.2,-9.4 
			-25.4,-6.6 -25.7,-6.1 -23.1,-5.5 -22.5,-3.8 -23.7,-2.8 -23.6,-0.7 -24.3,-0.3 -23.7,0.8 -22.9,0.8 -23.6,2.6 -22.1,2.9 
			-21.7,1.1 		"
      />
    </g>
    <g id="Herning_Syd">
      <polygon
        class="st0"
        points="-23.7,-2.8 -22.5,-3.8 -23.1,-5.5 -25.7,-6.1 -25.4,-6.6 -26.2,-9.4 -28.3,-9.4 -30.2,-8.2 
			-30.1,-5.6 -28.1,-3.5 -28.6,-2.7 -26.7,-2.1 -27,-1 -25.5,-0.8 -24.4,-3.2 		"
      />
    </g>
    <g id="Herning_Nord">
      <polygon
        class="st0"
        points="-28.6,-2.7 -26.7,-2.1 -27,-1 -25.5,-0.8 -24.4,-3.2 -23.7,-2.8 -23.6,-0.7 -24.3,-0.3 -23.7,0.8 
			-22.9,0.8 -23.6,2.6 -25,4.4 -24.1,4.4 -23.7,5.3 -25.6,7.4 -27.8,5 -29.5,5.8 -29.1,4.2 -30.3,3.2 -34.2,3.7 -35.2,3.2 -35.5,2 
			-34.7,0.4 -33.4,0.3 -32.2,-1.4 -30.9,-1 -29.5,-2.5 		"
      />
    </g>
    <g id="Holstebro">
      <polygon
        class="st0"
        points="-35.5,2 -35.2,3.2 -34.2,3.7 -30.3,3.2 -29.1,4.2 -29.5,5.8 -27.8,5 -25.6,7.4 -25.7,9.7 -28.1,9.9 
			-28.3,11.8 -29.8,11.7 -30.2,9.5 -30.7,9.4 -31.4,6.9 -33.8,7.7 -35.5,6.5 -37.4,5.7 -38.8,5.3 -39.2,4.5 -40.8,4.9 -40.8,6.2 
			-41.2,6.2 -40.9,2.6 -38.2,1.5 		"
      />
    </g>
    <g id="Ringkøbing">
      <polygon
        class="st0"
        points="-41.3,-5.8 -41.7,-4.2 -40.9,2.6 -38.2,1.5 -35.5,2 -34.7,0.4 -33.4,0.3 -32.2,-1.4 -30.9,-1 
			-29.5,-2.5 -28.6,-2.7 -28.1,-3.5 -30.1,-5.6 -30.2,-8.2 -28.3,-9.4 -28.8,-11.3 -29.9,-12 -31.6,-10.4 -33.7,-10.5 -35.2,-12.8 
			-37.2,-11.3 -37.8,-11.9 -39.7,-10.9 -40.4,-11.4 -41.2,-6.1 -40.8,-6.2 -39.9,-9.6 -39.5,-8.7 -38.5,-9.2 -38.8,-10.6 
			-36.5,-8.4 -37.8,-6.2 -38,-3.8 -40.7,-2.3 -40.8,-5.6 		"
      />
    </g>
    <g id="Frederikshavn">
      <polygon
        class="st0"
        points="-5.3,36.6 -4.3,38.4 -3,37.9 -1.7,38.4 -3,38.8 -3.3,40.2 -1.6,41.3 -3.3,43.6 -3,45.3 -4,45.7 
			-0.4,48.7 1.7,50 2.2,49.8 0,47.7 -1.4,44.7 -0.7,42.6 1,40.4 0.3,38.5 1,34.3 0.6,33.1 -0.2,32.4 -0.8,31.7 -1.4,32 -1.2,32.4 
			-1.4,33.1 -2.2,33.8 -2,34.3 -3,34.9 -3,34.4 -3.5,34.6 -4.3,33.9 -4.8,34 -4.8,35.3 		"
      />
      <polygon
        class="st0"
        points="6.4,34.5 7.2,35.8 8.9,36.2 9,36.4 11.1,36.9 11.9,36.7 11.9,35.7 11.7,36.2 11.5,35.9 10.3,35.8 
			9.9,35.3 10.3,35.2 9.6,33.8 8.9,33.1 7.8,33.8 7.5,34.3 7,34 		"
      />
    </g>
    <g id="Hjørring">
      <polygon
        class="st0"
        points="-14.1,36.7 -12.1,40.9 -10.4,43.1 -9.3,44.9 -6.3,44.7 -4,45.7 -3,45.3 -3.3,43.6 -1.6,41.3 
			-3.3,40.2 -3,38.8 -1.7,38.4 -3,37.9 -4.3,38.4 -5.3,36.6 -7.7,36.4 -10.3,36.7 -12.3,36.4 		"
      />
    </g>
    <g id="Brønderslev">
      <polygon
        class="st0"
        points="-4.8,35.3 -4.8,34 -4.3,33.9 -3.5,34.6 -3,34.4 -3,34.9 -2,34.3 -2.2,33.8 -1.4,33.1 -1.2,32.4 
			-1.4,32 -0.8,31.7 -1.7,29 -2.7,28.5 -2.9,29.4 -5.6,29.8 -6.6,31 -7.1,31 -8.3,32.2 -10.1,33.2 -11.3,32.9 -9.9,31.2 -10.2,30.4 
			-12.8,30.2 -12.2,29.3 -12.7,28.2 -13.5,27.9 -14.2,28.3 -15.6,27.2 -17.4,27.3 -20.5,26.1 -21,26.8 -21.9,26.5 -22.1,26.7 
			-22.8,26.6 -23.3,27.2 -23.9,27 -24.6,27.8 -25,30.9 -22.6,30.3 -20,30.8 -16.6,32.8 -14.1,36.7 -14.1,36.7 -12.3,36.4 
			-10.3,36.7 -7.7,36.4 -5.3,36.6 		"
      />
    </g>
    <g id="Thisted">
      <polygon
        class="st0"
        points="-39.2,17.3 -38.9,19.7 -36.7,24.8 -34.8,27.3 -32.4,29.9 -30,29.1 -26.2,30.9 -25,30.9 -24.6,27.8 
			-23.9,27 -24.8,26.3 -26.1,26.3 -27.3,25.3 -28.5,25.8 -28.2,25.1 -29.5,24.3 -31.3,24.4 -33.2,20.1 -34.8,19.2 -33.7,16.1 
			-34.2,15.7 -35,16.1 -36.2,15.6 -38.5,19 -38.8,16.5 		"
      />
      <polygon
        class="st0"
        points="-27.1,24.8 -28.1,24.3 -28.9,22.9 -31.3,22.5 -32.4,20.2 -31.3,20 -33.4,19.3 -33.9,18 -33.8,17.3 
			-33,17.4 -31.7,15.4 -29.7,16.5 -27.6,19.4 -28.2,22.5 -27.5,21.7 		"
      />
    </g>
    <g id="Himmerland">
      <polygon
        class="st0"
        points="-5.7,21.4 -5.5,22.1 -7.6,23.2 -9,23 -10.1,22.4 -11.3,23.3 -11.1,24.1 -12.8,25.1 -13.4,24.4 
			-13.3,23.5 -14.4,23.6 -15.5,22.5 -16.8,22.4 -16.6,23.8 -18.2,23.6 -18.8,25.8 -20.6,25.8 -22.7,22.5 -21.7,21.5 -22.6,19.9 
			-22.2,18.5 -21.4,18.3 -22.6,15.6 -20.3,16.4 -20,15.4 -17.7,14.5 -17.3,16 -16.4,16.1 -16.4,14.5 -15.6,16 -13.3,14.7 
			-12.4,17.4 -11.5,17.9 -12.2,18.7 -11.7,20.1 -7.5,19.5 -7.3,18.4 -4.3,19.7 -4.6,20 		"
      />
      <polygon
        class="st0"
        points="-22.8,26.6 -22.1,26.7 -21.9,26.5 -21,26.8 -20.5,26.1 -21.2,25.4 -21.4,25.7 -21.7,25.7 		"
      />
    </g>
    <g id="Mariagerfjord">
      <polygon
        class="st0"
        points="-16.4,14.5 -15.6,16 -13.3,14.7 -12.4,17.4 -11.5,17.9 -12.2,18.7 -11.7,20.1 -7.5,19.5 -7.3,18.4 
			-4.3,19.7 -4.6,20 -4.8,21.4 -4.4,21.7 -3.7,21.5 -3.3,19.1 -2.4,17.1 -2.4,16.8 -4.4,17.2 -5.3,16.7 -4.8,16.1 -6,14.6 
			-8.8,12.9 -10.5,12 -11.9,12.1 -12.4,12 -13.3,13.1 -14.4,12.7 -13.9,14.2 		"
      />
    </g>
    <g id="Aalborg_Øst">
      <polygon
        class="st0"
        points="-4.6,20 -5.7,21.4 -5.5,22.1 -7.6,23.2 -9,23 -9.3,24.9 -10.2,26.1 -9.6,27.2 -9.6,27.2 -8.3,28.5 
			-7.5,27.7 -4.4,25.4 -3.2,25.7 -3.6,24.1 -3.7,21.5 -4.4,21.7 -4.8,21.4 		"
      />
    </g>
    <g id="Aalborg_Vest">
      <polygon
        class="st0"
        points="-9,23 -10.1,22.4 -11.3,23.3 -11.1,24.1 -12.8,25.1 -13.4,24.4 -13.3,23.5 -14.4,23.6 -15.5,22.5 
			-16.8,22.4 -16.6,23.8 -18.2,23.6 -18.8,25.8 -18.8,26.3 -16.8,26.4 -15.4,25.8 -16.3,24.6 -15.7,24 -14,26.3 -13.7,27.3 
			-12.2,27.5 -11,27.3 -10.6,28 -9.7,27.7 -10.1,27.3 -9.6,27.2 -10.2,26.1 -9.3,24.9 		"
      />
    </g>
    <g id="Aalborg_Nord">
      <polygon
        class="st0"
        points="-12.2,29.3 -12.8,30.2 -10.2,30.4 -9.9,31.2 -11.3,32.9 -10.1,33.2 -8.3,32.2 -7.1,31 -6.6,31 
			-5.6,29.8 -2.9,29.4 -2.7,28.5 -1.7,29 -2,27.7 -2.6,25.8 -3.5,26 -4.2,25.7 -8.1,28.7 -8.5,28.7 -9.2,27.9 -10.4,28.2 		"
      />
    </g>
  </g>
</svg>
