<?xml version="1.0" encoding="utf-8"?>
<!-- Generator: Adobe Illustrator 24.3.0, SVG Export Plug-In . SVG Version: 6.00 Build 0)  -->
<svg
  version="1.1"
  id="Layer_1"
  xmlns="http://www.w3.org/2000/svg"
  xmlns:xlink="http://www.w3.org/1999/xlink"
  x="0px"
  y="0px"
  viewBox="0 0 80 80"
  style="enable-background: new 0 0 80 80"
  xml:space="preserve"
>
  <g>
    <rect style="fill: #2b8738" width="80" height="80" />
    <g>
      <path
        style="fill: #ffffff"
        d="M58.6,57.3H49l-2.3-6.6H33l-2.3,6.6h-9.4l11.5-30.6c-0.9-1.2-1.4-2.6-1.4-4.2
			c0-4.3,3.7-7.4,8.5-7.4s8.5,3.1,8.5,7.4c0,1.6-0.5,3-1.4,4.2L58.6,57.3z M44.1,42.9l-4.2-12.2l-4.2,12.2H44.1z M37.3,22.5
			c0,1.6,1.1,2.6,2.7,2.6s2.7-1,2.7-2.6s-1.1-2.6-2.7-2.6S37.3,21,37.3,22.5z"
      />
    </g>
  </g>
</svg>
