<?xml version="1.0" encoding="utf-8"?>
<!-- Generator: Adobe Illustrator 24.3.0, SVG Export Plug-In . SVG Version: 6.00 Build 0)  -->
<svg version="1.1" id="Layer_1" xmlns="http://www.w3.org/2000/svg" xmlns:xlink="http://www.w3.org/1999/xlink" x="0px" y="0px"
	 viewBox="0 0 80 80" style="enable-background:new 0 0 80 80;" xml:space="preserve">
<g>
	<rect style="fill:#733280;" width="80" height="80"/>
	<g>
		<path style="fill:#FFFFFF;" d="M56.2,46.7c0,6.6-4.8,10.6-12.4,10.6H26.5V21.4h16.9c7.1,0,11.4,3.6,11.4,9.4
			c0,3.3-1.7,5.9-4.4,7.3C53.9,39.3,56.2,42.5,56.2,46.7z M35.3,35.6h5.9c3.1,0,4.8-1.1,4.8-3.5s-1.6-3.6-4.9-3.5l-5.9,0.1v6.9H35.3
			z M47.2,46.2c0-2.8-1.8-4.1-5.8-4.1h-6.1v8.1l6.1,0.1C45.4,50.3,47.2,48.9,47.2,46.2z"/>
	</g>
</g>
</svg>
