<?xml version="1.0" encoding="utf-8"?>
<!-- Generator: Adobe Illustrator 24.3.0, SVG Export Plug-In . SVG Version: 6.00 Build 0)  -->
<svg version="1.1" id="Layer_1" xmlns="http://www.w3.org/2000/svg" xmlns:xlink="http://www.w3.org/1999/xlink" x="0px" y="0px"
	 viewBox="0 0 80 80" style="enable-background:new 0 0 80 80;" xml:space="preserve">
<g>
	<rect style="fill:#E6801A;" width="80" height="80"/>
	<g>
		<path style="fill:#FFFFFF;" d="M54.8,27.9c2.1,3.1,3.3,7,3.3,11.5c0,11-7.2,18.6-18.1,18.6c-4.4,0-8.1-1.2-11.1-3.4l-3.4,3.6
			l-3.7-3.6l3.5-3.6c-2.2-3.1-3.4-7-3.4-11.5c0-11.1,7.2-18.6,18.1-18.6c4.4,0,8.2,1.2,11.1,3.4l3.3-3.4l3.7,3.6L54.8,27.9z
			 M31.9,44.1L45,30.5c-1.4-0.9-3.1-1.5-5-1.5c-5.5,0-8.9,4.1-8.9,10.3C31.1,41.1,31.4,42.7,31.9,44.1z M48.2,34.7L35.1,48.3
			c1.4,0.9,3,1.4,4.9,1.4c5.5,0,8.9-4.2,8.9-10.3C48.9,37.7,48.7,36.1,48.2,34.7z"/>
	</g>
</g>
</svg>
