<?xml version="1.0" encoding="utf-8"?>
<!-- Generator: Adobe Illustrator 24.3.0, SVG Export Plug-In . SVG Version: 6.00 Build 0)  -->
<svg version="1.1" id="Layer_1" xmlns="http://www.w3.org/2000/svg" xmlns:xlink="http://www.w3.org/1999/xlink" x="0px" y="0px"
	 viewBox="0 0 80 80" style="enable-background:new 0 0 80 80;" xml:space="preserve">
<g>
	<g>
		<rect style="fill:#5ABE82;" width="80" height="80"/>
	</g>
	<g>
		<path style="fill:#FFFFFF;" d="M53.4,58.7L50,55.3c-2.8,1.8-6.2,2.7-10,2.7c-11,0-18.2-7.6-18.2-18.6c0-11.1,7.2-18.6,18.1-18.6
			S58,28.3,58,39.4c0,4.2-1,7.9-2.9,10.8l3.4,3.3L53.4,58.7z M43.5,48.9l-4.7-4.7l5.1-5.2l4.3,4.3c0.4-1.2,0.6-2.5,0.6-4
			c0-6.2-3.4-10.3-8.9-10.3S31,33.1,31,39.3c0,6.1,3.4,10.3,8.9,10.3C41.2,49.7,42.4,49.4,43.5,48.9z"/>
	</g>
</g>
</svg>
