<?xml version="1.0" encoding="utf-8"?>
<!-- Generator: Adobe Illustrator 24.3.0, SVG Export Plug-In . SVG Version: 6.00 Build 0)  -->
<svg version="1.1" id="Layer_1" xmlns="http://www.w3.org/2000/svg" xmlns:xlink="http://www.w3.org/1999/xlink" x="0px" y="0px"
	 viewBox="0 0 150 150" style="enable-background:new 0 0 150 150;" xml:space="preserve">
<style type="text/css">
	.st0{fill:#1D1D1B;}
</style>
<path class="st0" d="M101.1,74.1c-1.3-1.1-3.2-0.9-4.2,0.3C96.2,75.2,83,90.5,76,100.3c1.6-16.6,5-50,6.4-58.4
	c0.3-1.6-0.8-3.2-2.5-3.5c-1.6-0.3-3.2,0.8-3.5,2.5c-1.5,9.1-5.1,45.1-6.7,61.5c-4-4.3-10.1-12.6-16.3-22.9c-0.9-1.4-2.7-1.9-4.1-1
	c-1.4,0.9-1.9,2.7-1,4.1c0.2,0.3,4.3,7.1,9.2,14c5.8,8.1,9.5,11.9,12.1,13.6c0.5,0.8,1.3,1.4,2.3,1.5c0.1,0,0.2,0,0.3,0
	c0.4,0,0.7-0.1,1-0.2c0,0,0.1,0,0.1,0c0.1,0,0.1,0,0.2,0c1.7-0.1,3.2-1,4-2.6c2.9-5.6,18.3-24,24-30.6
	C102.5,77,102.4,75.2,101.1,74.1z"/>
</svg>
